{
    "asset" : {
        "generator" : "Khronos glTF Blender I/O v1.7.33",
        "version" : "2.0"
    },
    "scene" : 0,
    "scenes" : [
        {
            "name" : "Scene",
            "nodes" : [
                0
            ]
        }
    ],
    "nodes" : [
        {
            "mesh" : 0,
            "name" : "Cube.001"
        }
    ],
    "meshes" : [
        {
            "name" : "Cube.001",
            "primitives" : [
                {
                    "attributes" : {
                        "POSITION" : 0,
                        "NORMAL" : 1,
                        "TEXCOORD_0" : 2
                    },
                    "indices" : 3
                }
            ]
        }
    ],
    "accessors" : [
        {
            "bufferView" : 0,
            "componentType" : 5126,
            "count" : 2964,
            "max" : [
                11.5,
                1.844591498374939,
                38.70140075683594
            ],
            "min" : [
                -11.5,
                -0.1554197371006012,
                -38.7358512878418
            ],
            "type" : "VEC3"
        },
        {
            "bufferView" : 1,
            "componentType" : 5126,
            "count" : 2964,
            "type" : "VEC3"
        },
        {
            "bufferView" : 2,
            "componentType" : 5126,
            "count" : 2964,
            "type" : "VEC2"
        },
        {
            "bufferView" : 3,
            "componentType" : 5123,
            "count" : 3120,
            "type" : "SCALAR"
        }
    ],
    "bufferViews" : [
        {
            "buffer" : 0,
            "byteLength" : 35568,
            "byteOffset" : 0
        },
        {
            "buffer" : 0,
            "byteLength" : 35568,
            "byteOffset" : 35568
        },
        {
            "buffer" : 0,
            "byteLength" : 23712,
            "byteOffset" : 71136
        },
        {
            "buffer" : 0,
            "byteLength" : 6240,
            "byteOffset" : 94848
        }
    ],
    "buffers" : [
        {
            "byteLength" : 101088,
            "uri" : "data:application/octet-stream;base64,"
        }
    ]
}
